<svg xmlns="http://www.w3.org/2000/svg" version="1.1" xmlns:xlink="http://www.w3.org/1999/xlink" xmlns:svgjs="http://svgjs.dev/svgjs" width="1440" height="560" preserveAspectRatio="none" viewBox="0 0 1440 560"><g mask="url(&quot;#SvgjsMask1020&quot;)" fill="none"><rect width="1440" height="560" x="0" y="0" fill="url(&quot;#SvgjsLinearGradient1021&quot;)"></rect><path d="M750.772,180.011C770.674,179.767,790.948,174.367,801.814,157.692C813.67,139.498,815.242,116.069,804.877,96.986C794.047,77.045,773.463,63.512,750.772,63.717C728.401,63.919,709.253,78.422,698.335,97.949C687.695,116.98,685.776,140.599,697.516,158.971C708.532,176.21,730.316,180.262,750.772,180.011" fill="rgba(255, 255, 255, 0.4)" class="triangle-float3"></path><path d="M678.5607039226672 111.59516838579107L641.7229807143726-16.873239609028886 550.0922959278473 148.43289159408573z" fill="rgba(255, 255, 255, 0.4)" class="triangle-float1"></path><path d="M1261.3367131681177 643.8408436555658L1315.9959298753947 521.0742328982218 1193.2293191180506 466.41501619094475 1138.5701024107736 589.1816269482888z" fill="rgba(255, 255, 255, 0.4)" class="triangle-float1"></path><path d="M375.478768768416 527.6461844373897L298.77519377188673 417.87962811281244 247.4598146450288 523.0917470687073z" fill="rgba(255, 255, 255, 0.4)" class="triangle-float1"></path><path d="M1272.9218417525315 102.93292060967434L1371.3662798574805 164.57836324713168 1376.680252866078 63.18171791518404z" fill="rgba(255, 255, 255, 0.4)" class="triangle-float3"></path><path d="M879.6621824888156-35.14923599514651L820.8114789157867-30.000466591981894 857.959984807048 55.701204065979084z" fill="rgba(255, 255, 255, 0.4)" class="triangle-float2"></path><path d="M1107.593,386.658C1158.801,387.511,1213.303,372.697,1238.424,328.066C1263.201,284.047,1244.466,231.833,1219.436,187.958C1194.107,143.56,1158.681,100.406,1107.593,98.734C1054.232,96.987,1007.986,133.388,982.306,180.196C957.622,225.189,957.478,279.956,984.101,323.829C1009.781,366.148,1058.099,385.833,1107.593,386.658" fill="rgba(255, 255, 255, 0.4)" class="triangle-float3"></path><path d="M81.72 208.07 a145.1 145.1 0 1 0 290.2 0 a145.1 145.1 0 1 0 -290.2 0z" fill="rgba(255, 255, 255, 0.4)" class="triangle-float3"></path><path d="M901.16 358.52 a150.96 150.96 0 1 0 301.92 0 a150.96 150.96 0 1 0 -301.92 0z" fill="rgba(255, 255, 255, 0.4)" class="triangle-float3"></path><path d="M916.1447237619446 423.06570106618005L946.8809360368153 507.5127502509514 1000.591772946716 392.32948879130936z" fill="rgba(255, 255, 255, 0.4)" class="triangle-float1"></path><path d="M663.691,78.765C692.308,80.194,718.714,63.049,732.826,38.112C746.732,13.54,747.071,-17.407,731.415,-40.903C717.132,-62.339,689.448,-65.314,663.691,-65.644C637.102,-65.985,606.52,-65.512,592.893,-42.678C579.069,-19.513,591.978,8.453,605.564,31.758C619.015,54.831,637.016,77.433,663.691,78.765" fill="rgba(255, 255, 255, 0.4)" class="triangle-float3"></path><path d="M1208.766,554.065C1240.521,553.895,1270.907,540.158,1287.702,513.208C1305.519,484.618,1309.211,448.534,1292.901,419.059C1276.103,388.702,1243.427,369.011,1208.766,370.557C1176.307,372.005,1152.582,397.682,1136.699,426.026C1121.255,453.587,1112.858,486.528,1128.354,514.06C1144.093,542.022,1176.679,554.237,1208.766,554.065" fill="rgba(255, 255, 255, 0.4)" class="triangle-float3"></path><path d="M781.8164541281151 423.077358900974L685.4007869704678 429.81939912671487 692.1428271962087 526.2350662843621 788.558494353856 519.4930260586212z" fill="rgba(255, 255, 255, 0.4)" class="triangle-float1"></path><path d="M883.3520812928546 196.88394508322088L836.7830521455336 97.0163397953798 736.9154468576926 143.58536894270074 783.4844760050134 243.45297423054183z" fill="rgba(255, 255, 255, 0.4)" class="triangle-float2"></path><path d="M961.849,216.133C1013.003,217.16,1069.949,209.085,1095.535,164.778C1121.123,120.466,1099.962,66.919,1073.199,23.307C1047.967,-17.809,1010.078,-51.985,961.849,-53.072C911.898,-54.198,866.728,-25.016,841.455,18.085C815.871,61.715,810.878,116.37,837.151,159.589C862.561,201.388,912.943,215.151,961.849,216.133" fill="rgba(255, 255, 255, 0.4)" class="triangle-float2"></path><path d="M699.1057142845491 56.5079251427603L561.1773767354318 83.31847803440931 725.9162671761981 194.43626269187752z" fill="rgba(255, 255, 255, 0.4)" class="triangle-float2"></path><path d="M924.1763398441983 379.4552943224365L842.7171064261298 463.80879986498826 927.0706119686815 545.2680332830568 1008.52984538675 460.914527740505z" fill="rgba(255, 255, 255, 0.4)" class="triangle-float3"></path><path d="M642.111,236.807C690.892,239.098,738.788,211.862,760.205,167.974C779.706,128.011,759.617,83.211,735.2,46.048C713.703,13.328,681.246,-10.688,642.111,-11.769C601.016,-12.904,560.613,5.272,539.671,40.649C518.363,76.646,522.422,120.637,541.786,157.716C562.914,198.172,596.52,234.666,642.111,236.807" fill="rgba(255, 255, 255, 0.4)" class="triangle-float1"></path></g><defs><mask id="SvgjsMask1020"><rect width="1440" height="560" fill="#ffffff"></rect></mask><linearGradient x1="15.28%" y1="-39.29%" x2="84.72%" y2="139.29%" gradientUnits="userSpaceOnUse" id="SvgjsLinearGradient1021"><stop stop-color="#0e2a47" offset="0"></stop><stop stop-color="#00459e" offset="1"></stop></linearGradient><style>
                @keyframes float1 {
                    0%{transform: translate(0, 0)}
                    50%{transform: translate(-10px, 0)}
                    100%{transform: translate(0, 0)}
                }

                .triangle-float1 {
                    animation: float1 5s infinite;
                }

                @keyframes float2 {
                    0%{transform: translate(0, 0)}
                    50%{transform: translate(-5px, -5px)}
                    100%{transform: translate(0, 0)}
                }

                .triangle-float2 {
                    animation: float2 4s infinite;
                }

                @keyframes float3 {
                    0%{transform: translate(0, 0)}
                    50%{transform: translate(0, -10px)}
                    100%{transform: translate(0, 0)}
                }

                .triangle-float3 {
                    animation: float3 6s infinite;
                }
            </style></defs></svg>