<svg xmlns="http://www.w3.org/2000/svg" version="1.1" xmlns:xlink="http://www.w3.org/1999/xlink" xmlns:svgjs="http://svgjs.dev/svgjs" width="1440" height="560" preserveAspectRatio="none" viewBox="0 0 1440 560"><g mask="url(&quot;#SvgjsMask1010&quot;)" fill="none"><rect width="1440" height="560" x="0" y="0" fill="#0e2a47"></rect><path d="M816 421.93 a4.14 4.14 0 1 0 8.28 0 a4.14 4.14 0 1 0 -8.28 0z" fill="#037b0b"></path><path d="M812.77 257.9 a34.74 34.74 0 1 0 69.48 0 a34.74 34.74 0 1 0 -69.48 0z" fill="#d3b714"></path><path d="M378.31 233.85 a43.37 43.37 0 1 0 86.74 0 a43.37 43.37 0 1 0 -86.74 0z" fill="#d3b714"></path><path d="M1386.15 177.74L1402.16 177.74L1402.16 207.1L1386.15 207.1z" stroke="#e73635"></path><path d="M665.55 442.67L712.45 442.67L712.45 494.47L665.55 494.47z" stroke="#e73635"></path><path d="M1117.16 164.62L1117.37 164.62L1117.37 164.83L1117.16 164.83z" stroke="#d3b714"></path><path d="M2.73 42.41L28.71 42.41L28.71 61.04L2.73 61.04z" fill="#e73635"></path><path d="M1076.66 52.66a52.44 52.44 0 1 0 55.52-88.98z" fill="#d3b714"></path><path d="M1275.9 60.71a33.67 33.67 0 1 0-46.01-49.17z" fill="#e73635"></path><path d="M1228.65 462.34a15.18 15.18 0 1 0 29.06 8.78z" fill="#e73635"></path><path d="M362.86 188.77a22.41 22.41 0 1 0 6.31 44.37z" stroke="#037b0b"></path><path d="M857.54 69.88a36.92 36.92 0 1 0-45.13-58.44z" stroke="#037b0b"></path><path d="M297.44 444.76L306.86 444.76L306.86 454.18L297.44 454.18z" fill="#d3b714"></path><path d="M427.59 345.84L449.67 345.84L449.67 367.92L427.59 367.92z" fill="#e73635"></path><path d="M805.85 103.43a28.09 28.09 0 1 0 17.26 53.47z" stroke="#d3b714"></path><path d="M430.27 127.82L471.95 127.82L471.95 149.13L430.27 149.13z" fill="#e73635"></path><path d="M1009.8 167.24L1031.71 167.24L1031.71 189.15L1009.8 189.15z" fill="#d3b714"></path><path d="M970.14 324.63L1009.77 324.63L1009.77 375.02L970.14 375.02z" fill="#e73635"></path><path d="M1360.69 71.92L1365.75 71.92L1365.75 76.98L1360.69 76.98z" fill="#d3b714"></path><path d="M1004.81 461.11L1036.9 461.11L1036.9 493.2L1004.81 493.2z" stroke="#e73635"></path><path d="M76.35 445.58a35.02 35.02 0 1 0 68.5-14.62z" fill="#e73635"></path><path d="M1314.62 310.37a15.4 15.4 0 1 0-10.43 28.98z" fill="#037b0b"></path><path d="M224.63 288.99L247.53 288.99L247.53 311.89L224.63 311.89z" fill="#e73635"></path><path d="M799.38 400.54L848.2 400.54L848.2 449.36L799.38 449.36z" stroke="#d3b714"></path><path d="M23.54 379.58 a35.11 35.11 0 1 0 70.22 0 a35.11 35.11 0 1 0 -70.22 0z" stroke="#e73635"></path><path d="M374.34 371.04L379.29 371.04L379.29 378.94L374.34 378.94z" fill="#d3b714"></path><path d="M11.54 470.45L28.09 470.45L28.09 487L11.54 487z" stroke="#037b0b"></path><path d="M733.05 78.03a40.33 40.33 0 1 0-78.58 18.22z" stroke="#d3b714"></path><path d="M130.53 192.8a50.56 50.56 0 1 0 93.18 39.28z" fill="#037b0b"></path><path d="M1195.18 238.65L1203.77 238.65L1203.77 266.36L1195.18 266.36z" fill="#d3b714"></path><path d="M311.71 261.49 a36.17 36.17 0 1 0 72.34 0 a36.17 36.17 0 1 0 -72.34 0z" fill="#037b0b"></path><path d="M810.29 548.25a19 19 0 1 0-25.03-28.6z" fill="#037b0b"></path><path d="M835.68 552.03L837.31 552.03L837.31 590.2L835.68 590.2z" stroke="#d3b714"></path></g><defs><mask id="SvgjsMask1010"><rect width="1440" height="560" fill="#ffffff"></rect></mask></defs></svg>