<svg xmlns="http://www.w3.org/2000/svg" version="1.1" xmlns:xlink="http://www.w3.org/1999/xlink" xmlns:svgjs="http://svgjs.dev/svgjs" width="1440" height="600" preserveAspectRatio="none" viewBox="0 0 1440 600"><g mask="url(&quot;#SvgjsMask1072&quot;)" fill="none"><rect width="1440" height="600" x="0" y="0" fill="#0e2a47"></rect><path d="M19 600L619 0L1283.5 0L683.5 600z" fill="url(&quot;#SvgjsLinearGradient1073&quot;)"></path><path d="M556.2 600L1156.2 0L1334.7 0L734.7 600z" fill="url(&quot;#SvgjsLinearGradient1073&quot;)"></path><path d="M1389 600L789 0L142.5 0L742.5 600z" fill="url(&quot;#SvgjsLinearGradient1074&quot;)"></path><path d="M894.8 600L294.79999999999995 0L-68.20000000000005 0L531.8 600z" fill="url(&quot;#SvgjsLinearGradient1074&quot;)"></path><path d="M951.4539587859042 600L1440 111.4539587859042L1440 600z" fill="url(&quot;#SvgjsLinearGradient1073&quot;)"></path><path d="M0 600L488.5460412140958 600L 0 111.4539587859042z" fill="url(&quot;#SvgjsLinearGradient1074&quot;)"></path></g><defs><mask id="SvgjsMask1072"><rect width="1440" height="600" fill="#ffffff"></rect></mask><linearGradient x1="0%" y1="100%" x2="100%" y2="0%" id="SvgjsLinearGradient1073"><stop stop-color="rgba(153, 168, 255, 0.2)" offset="0"></stop><stop stop-opacity="0" stop-color="rgba(153, 168, 255, 0.2)" offset="0.66"></stop></linearGradient><linearGradient x1="100%" y1="100%" x2="0%" y2="0%" id="SvgjsLinearGradient1074"><stop stop-color="rgba(153, 168, 255, 0.2)" offset="0"></stop><stop stop-opacity="0" stop-color="rgba(153, 168, 255, 0.2)" offset="0.66"></stop></linearGradient></defs></svg>